<?xml version="1.0" encoding="utf-8"?>
<!-- Generator: Adobe Illustrator 19.0.0, SVG Export Plug-In . SVG Version: 6.00 Build 0)  -->
<svg width="50px" height="50px" version="1.1" id="Layer_1" xmlns="http://www.w3.org/2000/svg" xmlns:xlink="http://www.w3.org/1999/xlink" x="0px" y="0px"
	 viewBox="0 0 96 96" style="enable-background:new 0 0 96 96;" xml:space="preserve">
<style type="text/css">
	.st0{fill:#95A5A6;}
	.st1{fill:#F1C40F;}
	.st2{fill:#ECF0F1;}
	.st3{fill:#F39C12;}
	.st4{fill:#BDC3C7;}
	.st5{fill:#C0392B;}
	.st6{fill:#E74C3C;}
	.st7{fill:#3498DB;}
	.st8{fill:#2980B9;}
	.st9{fill:#7F8C8D;}
</style>
<g id="XMLID_1_">
	<polyline id="XMLID_3_" class="st0" points="15.5,75.1 80.5,75.1 69.7,58.8 26.3,58.8 15.5,75.1 	"/>
	<rect id="XMLID_4_" x="20.9" y="26.3" class="st1" width="54.2" height="46"/>
	<rect id="XMLID_5_" x="26.3" y="45.3" class="st2" width="24.4" height="24.4"/>
	<rect id="XMLID_6_" x="53.4" y="48" class="st2" width="16.3" height="24.4"/>
	<rect id="XMLID_7_" x="20.9" y="39.9" class="st3" width="54.2" height="10.8"/>
	<rect id="XMLID_8_" x="53.4" y="45.3" class="st4" width="16.3" height="2.7"/>
	<rect id="XMLID_9_" x="26.3" y="45.3" class="st4" width="24.4" height="5.4"/>
	<path id="XMLID_10_" class="st5" d="M15.5,37.2v4.1c0,2.2,1.8,4.1,4.1,4.1c2.2,0,4.1-1.9,4.1-4.1v-4.1h-4.1H15.5z"/>
	<path id="XMLID_11_" class="st4" d="M23.6,37.2v4.1c0,2.2,1.8,4.1,4.1,4.1s4.1-1.9,4.1-4.1v-4.1h-4.1H23.6z"/>
	<path id="XMLID_12_" class="st5" d="M31.8,37.2v4.1c0,2.2,1.8,4.1,4.1,4.1s4.1-1.9,4.1-4.1v-4.1h-4.1H31.8z"/>
	<path id="XMLID_13_" class="st4" d="M39.9,37.2v4.1c0,2.2,1.8,4.1,4.1,4.1c2.2,0,4.1-1.9,4.1-4.1v-4.1h-4.1H39.9z"/>
	<path id="XMLID_14_" class="st5" d="M48,37.2v4.1c0,2.2,1.8,4.1,4.1,4.1s4.1-1.9,4.1-4.1v-4.1h-4.1H48z"/>
	<path id="XMLID_15_" class="st4" d="M56.1,37.2v4.1c0,2.2,1.8,4.1,4.1,4.1s4.1-1.9,4.1-4.1v-4.1h-4.1H56.1z"/>
	<path id="XMLID_16_" class="st5" d="M64.3,37.2v4.1c0,2.2,1.8,4.1,4.1,4.1s4.1-1.9,4.1-4.1v-4.1h-4.1H64.3z"/>
	<path id="XMLID_17_" class="st4" d="M72.4,37.2v4.1c0,2.2,1.8,4.1,4.1,4.1s4.1-1.9,4.1-4.1v-4.1h-4.1H72.4z"/>
	<polygon id="XMLID_18_" class="st2" points="42.6,26.3 48,26.3 48,37.2 39.9,37.2 	"/>
	<polygon id="XMLID_19_" class="st6" points="48,26.3 53.4,26.3 56.1,37.2 48,37.2 	"/>
	<polygon id="XMLID_20_" class="st2" points="29,26.3 37.2,26.3 31.8,37.2 23.6,37.2 	"/>
	<polygon id="XMLID_21_" class="st6" points="37.2,26.3 42.6,26.3 39.9,37.2 31.8,37.2 	"/>
	<polygon id="XMLID_22_" class="st2" points="58.8,26.3 53.4,26.3 56.1,37.2 64.3,37.2 	"/>
	<polygon id="XMLID_23_" class="st6" points="67,26.3 58.8,26.3 64.3,37.2 72.4,37.2 	"/>
	<polygon id="XMLID_24_" class="st6" points="20.9,26.3 29,26.3 23.6,37.2 15.5,37.2 	"/>
	<polygon id="XMLID_25_" class="st2" points="75.1,26.3 67,26.3 72.4,37.2 80.5,37.2 	"/>
	<rect id="XMLID_26_" x="56.1" y="50.7" class="st7" width="10.8" height="21.7"/>
	<rect id="XMLID_27_" x="53.4" y="58.8" class="st2" width="13.5" height="2.7"/>
	<rect id="XMLID_28_" x="67" y="48" class="st4" width="2.7" height="2.7"/>
	<rect id="XMLID_29_" x="56.1" y="48" class="st8" width="10.8" height="2.7"/>
	<rect id="XMLID_30_" x="53.4" y="48" class="st4" width="2.7" height="2.7"/>
	<rect id="XMLID_31_" x="29" y="48" class="st7" width="19" height="19"/>
	<rect id="XMLID_32_" x="26.3" y="56.1" class="st2" width="24.4" height="2.7"/>
	<rect id="XMLID_33_" x="37.2" y="48" class="st2" width="2.7" height="19"/>
	<polyline id="XMLID_34_" class="st2" points="18.2,26.3 77.8,26.3 67.9,20.9 28.1,20.9 18.2,26.3 	"/>
	<rect id="XMLID_35_" x="37.2" y="48" class="st4" width="2.7" height="2.7"/>
	<polyline id="XMLID_36_" class="st4" points="18.2,23.6 77.8,23.6 67.9,18.2 28.1,18.2 18.2,23.6 	"/>
	<rect id="XMLID_37_" x="18.2" y="23.6" class="st9" width="59.6" height="2.7"/>
	<rect id="XMLID_38_" x="56.1" y="64.3" class="st8" width="10.8" height="8.1"/>
	<rect id="XMLID_39_" x="15.5" y="75.1" class="st9" width="65" height="2.7"/>
	<path id="XMLID_42_" class="st8" d="M29,48v2.7h8.1V48H29z M39.9,48v2.7H48V48H39.9z"/>
	<path id="XMLID_45_" class="st8" d="M29,64.3V67h8.1v-2.7H29z M39.9,64.3V67H48v-2.7H39.9z"/>
	<path id="XMLID_50_" class="st5" d="M20.9,26.3L19.6,29h8.1l1.4-2.7H20.9z M34.5,26.3L33.8,29h8.1l0.7-2.7H34.5z M48,26.3V29h6.1
		l-0.7-2.7H48z M58.8,26.3l1.4,2.7h8.1L67,26.3H58.8z"/>
	<path id="XMLID_55_" class="st4" d="M29,26.3L27.7,29h8.1l1.4-2.7H29z M42.6,26.3L41.9,29H48v-2.7H42.6z M53.4,26.3l0.7,2.7h6.1
		l-1.4-2.7H53.4z M67,26.3l1.4,2.7h8.1l-1.4-2.7H67z"/>
</g>
</svg>
